<mxfile host="app.diagrams.net" modified="2020-05-30T08:47:37.808Z" agent="5.0 (Windows NT 10.0; Win64; x64) AppleWebKit/537.36 (KHTML, like Gecko) Chrome/83.0.4103.61 Safari/537.36" etag="Z4AHaonjSCax61EOjKqa" version="13.1.2" type="github">
  <diagram id="ChKBXfdBBblxMw21lUqK" name="Page-1">
    <mxGraphModel dx="1497" dy="802" grid="1" gridSize="10" guides="1" tooltips="1" connect="1" arrows="1" fold="1" page="1" pageScale="1" pageWidth="827" pageHeight="1169" math="0" shadow="0">
      <root>
        <mxCell id="0" />
        <mxCell id="1" parent="0" />
        <mxCell id="kgkIl_F4Eej_qxn1qPEl-1" value="1" style="endArrow=open;html=1;endSize=12;startArrow=diamondThin;startSize=14;startFill=1;edgeStyle=orthogonalEdgeStyle;align=left;verticalAlign=bottom;exitX=1;exitY=0.5;exitDx=0;exitDy=0;entryX=0;entryY=0.5;entryDx=0;entryDy=0;" parent="1" source="kgkIl_F4Eej_qxn1qPEl-5" target="kgkIl_F4Eej_qxn1qPEl-16" edge="1">
          <mxGeometry x="-1" y="3" relative="1" as="geometry">
            <mxPoint x="340" y="290" as="sourcePoint" />
            <mxPoint x="410" y="230" as="targetPoint" />
          </mxGeometry>
        </mxCell>
        <mxCell id="kgkIl_F4Eej_qxn1qPEl-2" value="" style="endArrow=block;endSize=16;endFill=0;html=1;exitX=0.5;exitY=0;exitDx=0;exitDy=0;entryX=0;entryY=1;entryDx=0;entryDy=0;" parent="1" source="kgkIl_F4Eej_qxn1qPEl-20" target="kgkIl_F4Eej_qxn1qPEl-16" edge="1">
          <mxGeometry width="160" relative="1" as="geometry">
            <mxPoint x="330" y="190" as="sourcePoint" />
            <mxPoint x="490" y="190" as="targetPoint" />
          </mxGeometry>
        </mxCell>
        <mxCell id="kgkIl_F4Eej_qxn1qPEl-3" value="" style="endArrow=block;endSize=16;endFill=0;html=1;exitX=0.5;exitY=0;exitDx=0;exitDy=0;entryX=0.25;entryY=1;entryDx=0;entryDy=0;" parent="1" source="kgkIl_F4Eej_qxn1qPEl-32" target="kgkIl_F4Eej_qxn1qPEl-16" edge="1">
          <mxGeometry width="160" relative="1" as="geometry">
            <mxPoint x="400" y="320" as="sourcePoint" />
            <mxPoint x="480" y="200" as="targetPoint" />
          </mxGeometry>
        </mxCell>
        <mxCell id="kgkIl_F4Eej_qxn1qPEl-4" value="" style="endArrow=block;endSize=16;endFill=0;html=1;exitX=0.5;exitY=0;exitDx=0;exitDy=0;entryX=0.75;entryY=1;entryDx=0;entryDy=0;" parent="1" source="kgkIl_F4Eej_qxn1qPEl-26" target="kgkIl_F4Eej_qxn1qPEl-16" edge="1">
          <mxGeometry width="160" relative="1" as="geometry">
            <mxPoint x="410" y="330" as="sourcePoint" />
            <mxPoint x="540" y="250" as="targetPoint" />
            <Array as="points" />
          </mxGeometry>
        </mxCell>
        <mxCell id="kgkIl_F4Eej_qxn1qPEl-5" value="EnvironmentÂ " style="swimlane;fontStyle=2;align=center;verticalAlign=top;childLayout=stackLayout;horizontal=1;startSize=26;horizontalStack=0;resizeParent=1;resizeLast=0;collapsible=1;marginBottom=0;rounded=0;shadow=0;strokeWidth=1;fillColor=#d5e8d4;strokeColor=#82b366;" parent="1" vertex="1">
          <mxGeometry x="40" y="70" width="260" height="268" as="geometry">
            <mxRectangle x="160" y="172" width="160" height="26" as="alternateBounds" />
          </mxGeometry>
        </mxCell>
        <mxCell id="kgkIl_F4Eej_qxn1qPEl-6" value="int[2] : size = [50,100]" style="text;align=left;verticalAlign=top;spacingLeft=4;spacingRight=4;overflow=hidden;rotatable=0;points=[[0,0.5],[1,0.5]];portConstraint=eastwest;fontStyle=0;fontSize=12;" parent="kgkIl_F4Eej_qxn1qPEl-5" vertex="1">
          <mxGeometry y="26" width="260" height="26" as="geometry" />
        </mxCell>
        <mxCell id="kgkIl_F4Eej_qxn1qPEl-7" value="Ground[*][*] : board" style="text;align=left;verticalAlign=top;spacingLeft=4;spacingRight=4;overflow=hidden;rotatable=0;points=[[0,0.5],[1,0.5]];portConstraint=eastwest;" parent="kgkIl_F4Eej_qxn1qPEl-5" vertex="1">
          <mxGeometry y="52" width="260" height="26" as="geometry" />
        </mxCell>
        <mxCell id="kgkIl_F4Eej_qxn1qPEl-8" value="int : food_number = 500" style="text;align=left;verticalAlign=top;spacingLeft=4;spacingRight=4;overflow=hidden;rotatable=0;points=[[0,0.5],[1,0.5]];portConstraint=eastwest;rounded=0;shadow=0;html=0;" parent="kgkIl_F4Eej_qxn1qPEl-5" vertex="1">
          <mxGeometry y="78" width="260" height="26" as="geometry" />
        </mxCell>
        <mxCell id="kgkIl_F4Eej_qxn1qPEl-9" value="int : obstacle_number = 1000" style="text;align=left;verticalAlign=top;spacingLeft=4;spacingRight=4;overflow=hidden;rotatable=0;points=[[0,0.5],[1,0.5]];portConstraint=eastwest;rounded=0;shadow=0;html=0;" parent="kgkIl_F4Eej_qxn1qPEl-5" vertex="1">
          <mxGeometry y="104" width="260" height="26" as="geometry" />
        </mxCell>
        <mxCell id="kgkIl_F4Eej_qxn1qPEl-10" value="float : pheromone_disappearance_rate = 0,95" style="text;align=left;verticalAlign=top;spacingLeft=4;spacingRight=4;overflow=hidden;rotatable=0;points=[[0,0.5],[1,0.5]];portConstraint=eastwest;rounded=0;shadow=0;html=0;" parent="kgkIl_F4Eej_qxn1qPEl-5" vertex="1">
          <mxGeometry y="130" width="260" height="26" as="geometry" />
        </mxCell>
        <mxCell id="kgkIl_F4Eej_qxn1qPEl-11" value="" style="line;html=1;strokeWidth=1;align=left;verticalAlign=middle;spacingTop=-1;spacingLeft=3;spacingRight=3;rotatable=0;labelPosition=right;points=[];portConstraint=eastwest;fillColor=#d5e8d4;strokeColor=#82b366;" parent="kgkIl_F4Eej_qxn1qPEl-5" vertex="1">
          <mxGeometry y="156" width="260" height="8" as="geometry" />
        </mxCell>
        <mxCell id="kgkIl_F4Eej_qxn1qPEl-12" value="Environment()" style="text;align=left;verticalAlign=top;spacingLeft=4;spacingRight=4;overflow=hidden;rotatable=0;points=[[0,0.5],[1,0.5]];portConstraint=eastwest;" parent="kgkIl_F4Eej_qxn1qPEl-5" vertex="1">
          <mxGeometry y="164" width="260" height="26" as="geometry" />
        </mxCell>
        <mxCell id="kgkIl_F4Eej_qxn1qPEl-13" value="generate_ground()" style="text;align=left;verticalAlign=top;spacingLeft=4;spacingRight=4;overflow=hidden;rotatable=0;points=[[0,0.5],[1,0.5]];portConstraint=eastwest;" parent="kgkIl_F4Eej_qxn1qPEl-5" vertex="1">
          <mxGeometry y="190" width="260" height="26" as="geometry" />
        </mxCell>
        <mxCell id="kgkIl_F4Eej_qxn1qPEl-14" value="display_ground()" style="text;align=left;verticalAlign=top;spacingLeft=4;spacingRight=4;overflow=hidden;rotatable=0;points=[[0,0.5],[1,0.5]];portConstraint=eastwest;" parent="kgkIl_F4Eej_qxn1qPEl-5" vertex="1">
          <mxGeometry y="216" width="260" height="26" as="geometry" />
        </mxCell>
        <mxCell id="kgkIl_F4Eej_qxn1qPEl-15" value="~Environment()" style="text;align=left;verticalAlign=top;spacingLeft=4;spacingRight=4;overflow=hidden;rotatable=0;points=[[0,0.5],[1,0.5]];portConstraint=eastwest;" parent="kgkIl_F4Eej_qxn1qPEl-5" vertex="1">
          <mxGeometry y="242" width="260" height="26" as="geometry" />
        </mxCell>
        <mxCell id="kgkIl_F4Eej_qxn1qPEl-16" value="Ground" style="swimlane;fontStyle=2;align=center;verticalAlign=top;childLayout=stackLayout;horizontal=1;startSize=26;horizontalStack=0;resizeParent=1;resizeLast=0;collapsible=1;marginBottom=0;rounded=0;shadow=0;strokeWidth=1;fillColor=#d5e8d4;strokeColor=#82b366;" parent="1" vertex="1">
          <mxGeometry x="440" y="158" width="160" height="138" as="geometry">
            <mxRectangle x="480" y="125" width="160" height="26" as="alternateBounds" />
          </mxGeometry>
        </mxCell>
        <mxCell id="kgkIl_F4Eej_qxn1qPEl-17" value="int[2] : coordinates" style="text;align=left;verticalAlign=top;spacingLeft=4;spacingRight=4;overflow=hidden;rotatable=0;points=[[0,0.5],[1,0.5]];portConstraint=eastwest;" parent="kgkIl_F4Eej_qxn1qPEl-16" vertex="1">
          <mxGeometry y="26" width="160" height="26" as="geometry" />
        </mxCell>
        <mxCell id="kgkIl_F4Eej_qxn1qPEl-18" value="bool : crossable" style="text;align=left;verticalAlign=top;spacingLeft=4;spacingRight=4;overflow=hidden;rotatable=0;points=[[0,0.5],[1,0.5]];portConstraint=eastwest;" parent="kgkIl_F4Eej_qxn1qPEl-16" vertex="1">
          <mxGeometry y="52" width="160" height="26" as="geometry" />
        </mxCell>
        <mxCell id="kgkIl_F4Eej_qxn1qPEl-19" value="" style="line;html=1;strokeWidth=1;align=left;verticalAlign=middle;spacingTop=-1;spacingLeft=3;spacingRight=3;rotatable=0;labelPosition=right;points=[];portConstraint=eastwest;fillColor=#d5e8d4;strokeColor=#82b366;" parent="kgkIl_F4Eej_qxn1qPEl-16" vertex="1">
          <mxGeometry y="78" width="160" height="8" as="geometry" />
        </mxCell>
        <mxCell id="8NbpXaSffSvyTPDVv6Rb-91" value="Ground()" style="text;align=left;verticalAlign=top;spacingLeft=4;spacingRight=4;overflow=hidden;rotatable=0;points=[[0,0.5],[1,0.5]];portConstraint=eastwest;" vertex="1" parent="kgkIl_F4Eej_qxn1qPEl-16">
          <mxGeometry y="86" width="160" height="26" as="geometry" />
        </mxCell>
        <mxCell id="8NbpXaSffSvyTPDVv6Rb-92" value="~Ground()" style="text;align=left;verticalAlign=top;spacingLeft=4;spacingRight=4;overflow=hidden;rotatable=0;points=[[0,0.5],[1,0.5]];portConstraint=eastwest;" vertex="1" parent="kgkIl_F4Eej_qxn1qPEl-16">
          <mxGeometry y="112" width="160" height="26" as="geometry" />
        </mxCell>
        <mxCell id="8NbpXaSffSvyTPDVv6Rb-9" value="" style="endArrow=block;endSize=16;endFill=0;html=1;exitX=0.5;exitY=0;exitDx=0;exitDy=0;entryX=1;entryY=1;entryDx=0;entryDy=0;" edge="1" parent="1" source="8NbpXaSffSvyTPDVv6Rb-1" target="kgkIl_F4Eej_qxn1qPEl-16">
          <mxGeometry width="160" relative="1" as="geometry">
            <mxPoint x="827" y="358" as="sourcePoint" />
            <mxPoint x="687" y="220" as="targetPoint" />
            <Array as="points" />
          </mxGeometry>
        </mxCell>
        <mxCell id="kgkIl_F4Eej_qxn1qPEl-26" value="Dirt" style="swimlane;fontStyle=2;align=center;verticalAlign=top;childLayout=stackLayout;horizontal=1;startSize=26;horizontalStack=0;resizeParent=1;resizeLast=0;collapsible=1;marginBottom=0;rounded=0;shadow=0;strokeWidth=1;fillColor=#d5e8d4;strokeColor=#82b366;" parent="1" vertex="1">
          <mxGeometry x="540" y="389" width="160" height="138" as="geometry">
            <mxRectangle x="667" y="380" width="160" height="26" as="alternateBounds" />
          </mxGeometry>
        </mxCell>
        <mxCell id="kgkIl_F4Eej_qxn1qPEl-27" value="bool : has_pheromone" style="text;align=left;verticalAlign=top;spacingLeft=4;spacingRight=4;overflow=hidden;rotatable=0;points=[[0,0.5],[1,0.5]];portConstraint=eastwest;" parent="kgkIl_F4Eej_qxn1qPEl-26" vertex="1">
          <mxGeometry y="26" width="160" height="26" as="geometry" />
        </mxCell>
        <mxCell id="kgkIl_F4Eej_qxn1qPEl-28" value="" style="line;html=1;strokeWidth=1;align=left;verticalAlign=middle;spacingTop=-1;spacingLeft=3;spacingRight=3;rotatable=0;labelPosition=right;points=[];portConstraint=eastwest;fillColor=#d5e8d4;strokeColor=#82b366;" parent="kgkIl_F4Eej_qxn1qPEl-26" vertex="1">
          <mxGeometry y="52" width="160" height="8" as="geometry" />
        </mxCell>
        <mxCell id="kgkIl_F4Eej_qxn1qPEl-29" value="Dirt()" style="text;align=left;verticalAlign=top;spacingLeft=4;spacingRight=4;overflow=hidden;rotatable=0;points=[[0,0.5],[1,0.5]];portConstraint=eastwest;" parent="kgkIl_F4Eej_qxn1qPEl-26" vertex="1">
          <mxGeometry y="60" width="160" height="26" as="geometry" />
        </mxCell>
        <mxCell id="kgkIl_F4Eej_qxn1qPEl-30" value="apply_disappearance_rate()" style="text;align=left;verticalAlign=top;spacingLeft=4;spacingRight=4;overflow=hidden;rotatable=0;points=[[0,0.5],[1,0.5]];portConstraint=eastwest;" parent="kgkIl_F4Eej_qxn1qPEl-26" vertex="1">
          <mxGeometry y="86" width="160" height="26" as="geometry" />
        </mxCell>
        <mxCell id="kgkIl_F4Eej_qxn1qPEl-31" value="~Dirt()" style="text;align=left;verticalAlign=top;spacingLeft=4;spacingRight=4;overflow=hidden;rotatable=0;points=[[0,0.5],[1,0.5]];portConstraint=eastwest;" parent="kgkIl_F4Eej_qxn1qPEl-26" vertex="1">
          <mxGeometry y="112" width="160" height="26" as="geometry" />
        </mxCell>
        <mxCell id="kgkIl_F4Eej_qxn1qPEl-32" value="Obstacle" style="swimlane;fontStyle=2;align=center;verticalAlign=top;childLayout=stackLayout;horizontal=1;startSize=26;horizontalStack=0;resizeParent=1;resizeLast=0;collapsible=1;marginBottom=0;rounded=0;shadow=0;strokeWidth=1;fillColor=#d5e8d4;strokeColor=#82b366;" parent="1" vertex="1">
          <mxGeometry x="360" y="389" width="160" height="86" as="geometry">
            <mxRectangle x="480" y="380" width="160" height="26" as="alternateBounds" />
          </mxGeometry>
        </mxCell>
        <mxCell id="kgkIl_F4Eej_qxn1qPEl-33" value="" style="line;html=1;strokeWidth=1;align=left;verticalAlign=middle;spacingTop=-1;spacingLeft=3;spacingRight=3;rotatable=0;labelPosition=right;points=[];portConstraint=eastwest;fillColor=#d5e8d4;strokeColor=#82b366;" parent="kgkIl_F4Eej_qxn1qPEl-32" vertex="1">
          <mxGeometry y="26" width="160" height="8" as="geometry" />
        </mxCell>
        <mxCell id="kgkIl_F4Eej_qxn1qPEl-34" value="Obstacle()" style="text;align=left;verticalAlign=top;spacingLeft=4;spacingRight=4;overflow=hidden;rotatable=0;points=[[0,0.5],[1,0.5]];portConstraint=eastwest;" parent="kgkIl_F4Eej_qxn1qPEl-32" vertex="1">
          <mxGeometry y="34" width="160" height="26" as="geometry" />
        </mxCell>
        <mxCell id="kgkIl_F4Eej_qxn1qPEl-35" value="~Obstacle()" style="text;align=left;verticalAlign=top;spacingLeft=4;spacingRight=4;overflow=hidden;rotatable=0;points=[[0,0.5],[1,0.5]];portConstraint=eastwest;" parent="kgkIl_F4Eej_qxn1qPEl-32" vertex="1">
          <mxGeometry y="60" width="160" height="26" as="geometry" />
        </mxCell>
        <mxCell id="kgkIl_F4Eej_qxn1qPEl-20" value="Food" style="swimlane;fontStyle=2;align=center;verticalAlign=top;childLayout=stackLayout;horizontal=1;startSize=26;horizontalStack=0;resizeParent=1;resizeLast=0;collapsible=1;marginBottom=0;rounded=0;shadow=0;strokeWidth=1;fillColor=#d5e8d4;strokeColor=#82b366;" parent="1" vertex="1">
          <mxGeometry x="180" y="389" width="160" height="140" as="geometry">
            <mxRectangle x="300" y="380" width="160" height="26" as="alternateBounds" />
          </mxGeometry>
        </mxCell>
        <mxCell id="kgkIl_F4Eej_qxn1qPEl-21" value="int: quantity" style="text;align=left;verticalAlign=top;spacingLeft=4;spacingRight=4;overflow=hidden;rotatable=0;points=[[0,0.5],[1,0.5]];portConstraint=eastwest;" parent="kgkIl_F4Eej_qxn1qPEl-20" vertex="1">
          <mxGeometry y="26" width="160" height="26" as="geometry" />
        </mxCell>
        <mxCell id="kgkIl_F4Eej_qxn1qPEl-22" value="" style="line;html=1;strokeWidth=1;align=left;verticalAlign=middle;spacingTop=-1;spacingLeft=3;spacingRight=3;rotatable=0;labelPosition=right;points=[];portConstraint=eastwest;fillColor=#d5e8d4;strokeColor=#82b366;" parent="kgkIl_F4Eej_qxn1qPEl-20" vertex="1">
          <mxGeometry y="52" width="160" height="8" as="geometry" />
        </mxCell>
        <mxCell id="kgkIl_F4Eej_qxn1qPEl-23" value="Food()" style="text;align=left;verticalAlign=top;spacingLeft=4;spacingRight=4;overflow=hidden;rotatable=0;points=[[0,0.5],[1,0.5]];portConstraint=eastwest;" parent="kgkIl_F4Eej_qxn1qPEl-20" vertex="1">
          <mxGeometry y="60" width="160" height="26" as="geometry" />
        </mxCell>
        <mxCell id="kgkIl_F4Eej_qxn1qPEl-24" value="decrease_quantity()" style="text;align=left;verticalAlign=top;spacingLeft=4;spacingRight=4;overflow=hidden;rotatable=0;points=[[0,0.5],[1,0.5]];portConstraint=eastwest;" parent="kgkIl_F4Eej_qxn1qPEl-20" vertex="1">
          <mxGeometry y="86" width="160" height="26" as="geometry" />
        </mxCell>
        <mxCell id="kgkIl_F4Eej_qxn1qPEl-25" value="~Food()" style="text;align=left;verticalAlign=top;spacingLeft=4;spacingRight=4;overflow=hidden;rotatable=0;points=[[0,0.5],[1,0.5]];portConstraint=eastwest;" parent="kgkIl_F4Eej_qxn1qPEl-20" vertex="1">
          <mxGeometry y="112" width="160" height="26" as="geometry" />
        </mxCell>
        <mxCell id="8NbpXaSffSvyTPDVv6Rb-1" value="Anthill" style="swimlane;fontStyle=2;align=center;verticalAlign=top;childLayout=stackLayout;horizontal=1;startSize=26;horizontalStack=0;resizeParent=1;resizeLast=0;collapsible=1;marginBottom=0;rounded=0;shadow=0;strokeWidth=1;fillColor=#d5e8d4;strokeColor=#82b366;" vertex="1" parent="1">
          <mxGeometry x="720" y="389" width="160" height="190" as="geometry">
            <mxRectangle x="480" y="380" width="160" height="26" as="alternateBounds" />
          </mxGeometry>
        </mxCell>
        <mxCell id="8NbpXaSffSvyTPDVv6Rb-6" value="int: nb_ant_max" style="text;align=left;verticalAlign=top;spacingLeft=4;spacingRight=4;overflow=hidden;rotatable=0;points=[[0,0.5],[1,0.5]];portConstraint=eastwest;" vertex="1" parent="8NbpXaSffSvyTPDVv6Rb-1">
          <mxGeometry y="26" width="160" height="26" as="geometry" />
        </mxCell>
        <mxCell id="8NbpXaSffSvyTPDVv6Rb-79" value="int: food_quantity" style="text;align=left;verticalAlign=top;spacingLeft=4;spacingRight=4;overflow=hidden;rotatable=0;points=[[0,0.5],[1,0.5]];portConstraint=eastwest;" vertex="1" parent="8NbpXaSffSvyTPDVv6Rb-1">
          <mxGeometry y="52" width="160" height="26" as="geometry" />
        </mxCell>
        <mxCell id="8NbpXaSffSvyTPDVv6Rb-7" value="int: food_quantity_max" style="text;align=left;verticalAlign=top;spacingLeft=4;spacingRight=4;overflow=hidden;rotatable=0;points=[[0,0.5],[1,0.5]];portConstraint=eastwest;" vertex="1" parent="8NbpXaSffSvyTPDVv6Rb-1">
          <mxGeometry y="78" width="160" height="26" as="geometry" />
        </mxCell>
        <mxCell id="8NbpXaSffSvyTPDVv6Rb-86" value="Ant[nb_ant_max]: ants" style="text;align=left;verticalAlign=top;spacingLeft=4;spacingRight=4;overflow=hidden;rotatable=0;points=[[0,0.5],[1,0.5]];portConstraint=eastwest;" vertex="1" parent="8NbpXaSffSvyTPDVv6Rb-1">
          <mxGeometry y="104" width="160" height="26" as="geometry" />
        </mxCell>
        <mxCell id="8NbpXaSffSvyTPDVv6Rb-2" value="" style="line;html=1;strokeWidth=1;align=left;verticalAlign=middle;spacingTop=-1;spacingLeft=3;spacingRight=3;rotatable=0;labelPosition=right;points=[];portConstraint=eastwest;fillColor=#d5e8d4;strokeColor=#82b366;" vertex="1" parent="8NbpXaSffSvyTPDVv6Rb-1">
          <mxGeometry y="130" width="160" height="8" as="geometry" />
        </mxCell>
        <mxCell id="8NbpXaSffSvyTPDVv6Rb-3" value="Anthill()" style="text;align=left;verticalAlign=top;spacingLeft=4;spacingRight=4;overflow=hidden;rotatable=0;points=[[0,0.5],[1,0.5]];portConstraint=eastwest;" vertex="1" parent="8NbpXaSffSvyTPDVv6Rb-1">
          <mxGeometry y="138" width="160" height="26" as="geometry" />
        </mxCell>
        <mxCell id="8NbpXaSffSvyTPDVv6Rb-4" value="~Anthill()" style="text;align=left;verticalAlign=top;spacingLeft=4;spacingRight=4;overflow=hidden;rotatable=0;points=[[0,0.5],[1,0.5]];portConstraint=eastwest;" vertex="1" parent="8NbpXaSffSvyTPDVv6Rb-1">
          <mxGeometry y="164" width="160" height="26" as="geometry" />
        </mxCell>
        <mxCell id="8NbpXaSffSvyTPDVv6Rb-30" value="" style="endArrow=block;endSize=16;endFill=0;html=1;exitX=0.5;exitY=0;exitDx=0;exitDy=0;entryX=0;entryY=1;entryDx=0;entryDy=0;" edge="1" parent="1" source="8NbpXaSffSvyTPDVv6Rb-14" target="8NbpXaSffSvyTPDVv6Rb-10">
          <mxGeometry width="160" relative="1" as="geometry">
            <mxPoint x="1289.0000000000005" y="379" as="sourcePoint" />
            <mxPoint x="1089" y="240" as="targetPoint" />
            <Array as="points" />
          </mxGeometry>
        </mxCell>
        <mxCell id="8NbpXaSffSvyTPDVv6Rb-31" value="" style="endArrow=block;endSize=16;endFill=0;html=1;exitX=0.5;exitY=0;exitDx=0;exitDy=0;" edge="1" parent="1" source="8NbpXaSffSvyTPDVv6Rb-18" target="8NbpXaSffSvyTPDVv6Rb-61">
          <mxGeometry width="160" relative="1" as="geometry">
            <mxPoint x="1279.0000000000005" y="389" as="sourcePoint" />
            <mxPoint x="1450" y="480" as="targetPoint" />
            <Array as="points" />
          </mxGeometry>
        </mxCell>
        <mxCell id="8NbpXaSffSvyTPDVv6Rb-32" value="" style="endArrow=block;endSize=16;endFill=0;html=1;exitX=0.5;exitY=0;exitDx=0;exitDy=0;" edge="1" parent="1" source="8NbpXaSffSvyTPDVv6Rb-22" target="8NbpXaSffSvyTPDVv6Rb-61">
          <mxGeometry width="160" relative="1" as="geometry">
            <mxPoint x="1819.0000000000005" y="349" as="sourcePoint" />
            <mxPoint x="1520" y="510" as="targetPoint" />
            <Array as="points" />
          </mxGeometry>
        </mxCell>
        <mxCell id="8NbpXaSffSvyTPDVv6Rb-33" value="" style="endArrow=block;endSize=16;endFill=0;html=1;exitX=0.5;exitY=0;exitDx=0;exitDy=0;entryX=1;entryY=1;entryDx=0;entryDy=0;" edge="1" parent="1" source="8NbpXaSffSvyTPDVv6Rb-26" target="8NbpXaSffSvyTPDVv6Rb-10">
          <mxGeometry width="160" relative="1" as="geometry">
            <mxPoint x="879.0000000000005" y="429" as="sourcePoint" />
            <mxPoint x="679" y="290" as="targetPoint" />
            <Array as="points" />
          </mxGeometry>
        </mxCell>
        <mxCell id="8NbpXaSffSvyTPDVv6Rb-10" value="Ant" style="swimlane;fontStyle=2;align=center;verticalAlign=top;childLayout=stackLayout;horizontal=1;startSize=26;horizontalStack=0;resizeParent=1;resizeLast=0;collapsible=1;marginBottom=0;rounded=0;shadow=0;strokeWidth=1;fillColor=#dae8fc;strokeColor=#6c8ebf;" vertex="1" parent="1">
          <mxGeometry x="1376" y="120" width="290" height="294" as="geometry">
            <mxRectangle x="480" y="125" width="160" height="26" as="alternateBounds" />
          </mxGeometry>
        </mxCell>
        <mxCell id="8NbpXaSffSvyTPDVv6Rb-11" value="int[2] : coordinates" style="text;align=left;verticalAlign=top;spacingLeft=4;spacingRight=4;overflow=hidden;rotatable=0;points=[[0,0.5],[1,0.5]];portConstraint=eastwest;" vertex="1" parent="8NbpXaSffSvyTPDVv6Rb-10">
          <mxGeometry y="26" width="290" height="26" as="geometry" />
        </mxCell>
        <mxCell id="8NbpXaSffSvyTPDVv6Rb-12" value="virtual int :Â  food_need = 0;" style="text;align=left;verticalAlign=top;spacingLeft=4;spacingRight=4;overflow=hidden;rotatable=0;points=[[0,0.5],[1,0.5]];portConstraint=eastwest;" vertex="1" parent="8NbpXaSffSvyTPDVv6Rb-10">
          <mxGeometry y="52" width="290" height="26" as="geometry" />
        </mxCell>
        <mxCell id="8NbpXaSffSvyTPDVv6Rb-37" value="virtual int :Â  max_food_need = 0;" style="text;align=left;verticalAlign=top;spacingLeft=4;spacingRight=4;overflow=hidden;rotatable=0;points=[[0,0.5],[1,0.5]];portConstraint=eastwest;" vertex="1" parent="8NbpXaSffSvyTPDVv6Rb-10">
          <mxGeometry y="78" width="290" height="26" as="geometry" />
        </mxCell>
        <mxCell id="8NbpXaSffSvyTPDVv6Rb-66" value="virtual int :Â  time_to_transition = 0;" style="text;align=left;verticalAlign=top;spacingLeft=4;spacingRight=4;overflow=hidden;rotatable=0;points=[[0,0.5],[1,0.5]];portConstraint=eastwest;" vertex="1" parent="8NbpXaSffSvyTPDVv6Rb-10">
          <mxGeometry y="104" width="290" height="26" as="geometry" />
        </mxCell>
        <mxCell id="8NbpXaSffSvyTPDVv6Rb-81" value="virtual bool :Â  is_queen = 0;" style="text;align=left;verticalAlign=top;spacingLeft=4;spacingRight=4;overflow=hidden;rotatable=0;points=[[0,0.5],[1,0.5]];portConstraint=eastwest;" vertex="1" parent="8NbpXaSffSvyTPDVv6Rb-10">
          <mxGeometry y="130" width="290" height="26" as="geometry" />
        </mxCell>
        <mxCell id="8NbpXaSffSvyTPDVv6Rb-13" value="" style="line;html=1;strokeWidth=1;align=left;verticalAlign=middle;spacingTop=-1;spacingLeft=3;spacingRight=3;rotatable=0;labelPosition=right;points=[];portConstraint=eastwest;fillColor=#dae8fc;strokeColor=#6c8ebf;" vertex="1" parent="8NbpXaSffSvyTPDVv6Rb-10">
          <mxGeometry y="156" width="290" height="8" as="geometry" />
        </mxCell>
        <mxCell id="8NbpXaSffSvyTPDVv6Rb-93" value="Ant()" style="text;align=left;verticalAlign=top;spacingLeft=4;spacingRight=4;overflow=hidden;rotatable=0;points=[[0,0.5],[1,0.5]];portConstraint=eastwest;" vertex="1" parent="8NbpXaSffSvyTPDVv6Rb-10">
          <mxGeometry y="164" width="290" height="26" as="geometry" />
        </mxCell>
        <mxCell id="8NbpXaSffSvyTPDVv6Rb-94" value="~Ant()" style="text;align=left;verticalAlign=top;spacingLeft=4;spacingRight=4;overflow=hidden;rotatable=0;points=[[0,0.5],[1,0.5]];portConstraint=eastwest;" vertex="1" parent="8NbpXaSffSvyTPDVv6Rb-10">
          <mxGeometry y="190" width="290" height="26" as="geometry" />
        </mxCell>
        <mxCell id="8NbpXaSffSvyTPDVv6Rb-41" value="int :Â Â decrease_food_need();" style="text;align=left;verticalAlign=top;spacingLeft=4;spacingRight=4;overflow=hidden;rotatable=0;points=[[0,0.5],[1,0.5]];portConstraint=eastwest;" vertex="1" parent="8NbpXaSffSvyTPDVv6Rb-10">
          <mxGeometry y="216" width="290" height="26" as="geometry" />
        </mxCell>
        <mxCell id="8NbpXaSffSvyTPDVv6Rb-51" value="virtual int :Â  increase_food_need() = 0;" style="text;align=left;verticalAlign=top;spacingLeft=4;spacingRight=4;overflow=hidden;rotatable=0;points=[[0,0.5],[1,0.5]];portConstraint=eastwest;" vertex="1" parent="8NbpXaSffSvyTPDVv6Rb-10">
          <mxGeometry y="242" width="290" height="26" as="geometry" />
        </mxCell>
        <mxCell id="8NbpXaSffSvyTPDVv6Rb-72" value="virtual void :Â  eat() = 0;" style="text;align=left;verticalAlign=top;spacingLeft=4;spacingRight=4;overflow=hidden;rotatable=0;points=[[0,0.5],[1,0.5]];portConstraint=eastwest;" vertex="1" parent="8NbpXaSffSvyTPDVv6Rb-10">
          <mxGeometry y="268" width="290" height="26" as="geometry" />
        </mxCell>
        <mxCell id="8NbpXaSffSvyTPDVv6Rb-60" value="" style="endArrow=block;endSize=16;endFill=0;html=1;exitX=0.5;exitY=0;exitDx=0;exitDy=0;entryX=0.5;entryY=1;entryDx=0;entryDy=0;" edge="1" parent="1" source="8NbpXaSffSvyTPDVv6Rb-55" target="8NbpXaSffSvyTPDVv6Rb-10">
          <mxGeometry width="160" relative="1" as="geometry">
            <mxPoint x="1190" y="410.0000000000001" as="sourcePoint" />
            <mxPoint x="1386" y="319.9999999999999" as="targetPoint" />
            <Array as="points" />
          </mxGeometry>
        </mxCell>
        <mxCell id="8NbpXaSffSvyTPDVv6Rb-87" value="Use" style="endArrow=open;endSize=12;dashed=1;html=1;exitX=1;exitY=0.5;exitDx=0;exitDy=0;entryX=0;entryY=0.5;entryDx=0;entryDy=0;" edge="1" parent="1" source="8NbpXaSffSvyTPDVv6Rb-7" target="8NbpXaSffSvyTPDVv6Rb-66">
          <mxGeometry width="160" relative="1" as="geometry">
            <mxPoint x="980" y="400" as="sourcePoint" />
            <mxPoint x="1140" y="400" as="targetPoint" />
          </mxGeometry>
        </mxCell>
        <mxCell id="8NbpXaSffSvyTPDVv6Rb-55" value="Full_grown_ant" style="swimlane;fontStyle=2;align=center;verticalAlign=top;childLayout=stackLayout;horizontal=1;startSize=26;horizontalStack=0;resizeParent=1;resizeLast=0;collapsible=1;marginBottom=0;rounded=0;shadow=0;strokeWidth=1;fillColor=#dae8fc;strokeColor=#6c8ebf;" vertex="1" parent="1">
          <mxGeometry x="1414" y="470" width="214" height="268" as="geometry">
            <mxRectangle x="480" y="125" width="160" height="26" as="alternateBounds" />
          </mxGeometry>
        </mxCell>
        <mxCell id="8NbpXaSffSvyTPDVv6Rb-56" value="virtual int :Â  max_food_need = 0;" style="text;align=left;verticalAlign=top;spacingLeft=4;spacingRight=4;overflow=hidden;rotatable=0;points=[[0,0.5],[1,0.5]];portConstraint=eastwest;" vertex="1" parent="8NbpXaSffSvyTPDVv6Rb-55">
          <mxGeometry y="26" width="214" height="26" as="geometry" />
        </mxCell>
        <mxCell id="8NbpXaSffSvyTPDVv6Rb-57" value="virtual int :Â  food_need = 0;" style="text;align=left;verticalAlign=top;spacingLeft=4;spacingRight=4;overflow=hidden;rotatable=0;points=[[0,0.5],[1,0.5]];portConstraint=eastwest;" vertex="1" parent="8NbpXaSffSvyTPDVv6Rb-55">
          <mxGeometry y="52" width="214" height="26" as="geometry" />
        </mxCell>
        <mxCell id="8NbpXaSffSvyTPDVv6Rb-63" value="virtual int :Â  carrying_capacity = 0;" style="text;align=left;verticalAlign=top;spacingLeft=4;spacingRight=4;overflow=hidden;rotatable=0;points=[[0,0.5],[1,0.5]];portConstraint=eastwest;" vertex="1" parent="8NbpXaSffSvyTPDVv6Rb-55">
          <mxGeometry y="78" width="214" height="26" as="geometry" />
        </mxCell>
        <mxCell id="8NbpXaSffSvyTPDVv6Rb-68" value="virtual int :Â  time_to_transition = 0;" style="text;align=left;verticalAlign=top;spacingLeft=4;spacingRight=4;overflow=hidden;rotatable=0;points=[[0,0.5],[1,0.5]];portConstraint=eastwest;" vertex="1" parent="8NbpXaSffSvyTPDVv6Rb-55">
          <mxGeometry y="104" width="214" height="26" as="geometry" />
        </mxCell>
        <mxCell id="8NbpXaSffSvyTPDVv6Rb-80" value="virtual bool :Â  is_queen = 0;" style="text;align=left;verticalAlign=top;spacingLeft=4;spacingRight=4;overflow=hidden;rotatable=0;points=[[0,0.5],[1,0.5]];portConstraint=eastwest;" vertex="1" parent="8NbpXaSffSvyTPDVv6Rb-55">
          <mxGeometry y="130" width="214" height="26" as="geometry" />
        </mxCell>
        <mxCell id="8NbpXaSffSvyTPDVv6Rb-58" value="" style="line;html=1;strokeWidth=1;align=left;verticalAlign=middle;spacingTop=-1;spacingLeft=3;spacingRight=3;rotatable=0;labelPosition=right;points=[];portConstraint=eastwest;fillColor=#dae8fc;strokeColor=#6c8ebf;" vertex="1" parent="8NbpXaSffSvyTPDVv6Rb-55">
          <mxGeometry y="156" width="214" height="8" as="geometry" />
        </mxCell>
        <mxCell id="8NbpXaSffSvyTPDVv6Rb-97" value="Full_grown_ant()" style="text;align=left;verticalAlign=top;spacingLeft=4;spacingRight=4;overflow=hidden;rotatable=0;points=[[0,0.5],[1,0.5]];portConstraint=eastwest;" vertex="1" parent="8NbpXaSffSvyTPDVv6Rb-55">
          <mxGeometry y="164" width="214" height="26" as="geometry" />
        </mxCell>
        <mxCell id="8NbpXaSffSvyTPDVv6Rb-98" value="~Full_grown_ant()" style="text;align=left;verticalAlign=top;spacingLeft=4;spacingRight=4;overflow=hidden;rotatable=0;points=[[0,0.5],[1,0.5]];portConstraint=eastwest;" vertex="1" parent="8NbpXaSffSvyTPDVv6Rb-55">
          <mxGeometry y="190" width="214" height="26" as="geometry" />
        </mxCell>
        <mxCell id="8NbpXaSffSvyTPDVv6Rb-74" value="virtual int :Â  increase_food_need() = 0;" style="text;align=left;verticalAlign=top;spacingLeft=4;spacingRight=4;overflow=hidden;rotatable=0;points=[[0,0.5],[1,0.5]];portConstraint=eastwest;" vertex="1" parent="8NbpXaSffSvyTPDVv6Rb-55">
          <mxGeometry y="216" width="214" height="26" as="geometry" />
        </mxCell>
        <mxCell id="8NbpXaSffSvyTPDVv6Rb-61" value="virtual void :Â  movement() = 0;" style="text;align=left;verticalAlign=top;spacingLeft=4;spacingRight=4;overflow=hidden;rotatable=0;points=[[0,0.5],[1,0.5]];portConstraint=eastwest;" vertex="1" parent="8NbpXaSffSvyTPDVv6Rb-55">
          <mxGeometry y="242" width="214" height="26" as="geometry" />
        </mxCell>
        <mxCell id="8NbpXaSffSvyTPDVv6Rb-14" value="Larva" style="swimlane;fontStyle=2;align=center;verticalAlign=top;childLayout=stackLayout;horizontal=1;startSize=26;horizontalStack=0;resizeParent=1;resizeLast=0;collapsible=1;marginBottom=0;rounded=0;shadow=0;strokeWidth=1;fillColor=#dae8fc;strokeColor=#6c8ebf;" vertex="1" parent="1">
          <mxGeometry x="1100" y="470" width="200" height="216" as="geometry">
            <mxRectangle x="480" y="125" width="160" height="26" as="alternateBounds" />
          </mxGeometry>
        </mxCell>
        <mxCell id="8NbpXaSffSvyTPDVv6Rb-44" value="virtual int :Â  max_food_need;" style="text;align=left;verticalAlign=top;spacingLeft=4;spacingRight=4;overflow=hidden;rotatable=0;points=[[0,0.5],[1,0.5]];portConstraint=eastwest;" vertex="1" parent="8NbpXaSffSvyTPDVv6Rb-14">
          <mxGeometry y="26" width="200" height="26" as="geometry" />
        </mxCell>
        <mxCell id="8NbpXaSffSvyTPDVv6Rb-52" value="virtual int :Â  food_need;" style="text;align=left;verticalAlign=top;spacingLeft=4;spacingRight=4;overflow=hidden;rotatable=0;points=[[0,0.5],[1,0.5]];portConstraint=eastwest;" vertex="1" parent="8NbpXaSffSvyTPDVv6Rb-14">
          <mxGeometry y="52" width="200" height="26" as="geometry" />
        </mxCell>
        <mxCell id="8NbpXaSffSvyTPDVv6Rb-67" value="virtual int :Â  time_to_transition;" style="text;align=left;verticalAlign=top;spacingLeft=4;spacingRight=4;overflow=hidden;rotatable=0;points=[[0,0.5],[1,0.5]];portConstraint=eastwest;" vertex="1" parent="8NbpXaSffSvyTPDVv6Rb-14">
          <mxGeometry y="78" width="200" height="26" as="geometry" />
        </mxCell>
        <mxCell id="8NbpXaSffSvyTPDVv6Rb-43" value="virtual bool :Â  is_queen;" style="text;align=left;verticalAlign=top;spacingLeft=4;spacingRight=4;overflow=hidden;rotatable=0;points=[[0,0.5],[1,0.5]];portConstraint=eastwest;" vertex="1" parent="8NbpXaSffSvyTPDVv6Rb-14">
          <mxGeometry y="104" width="200" height="26" as="geometry" />
        </mxCell>
        <mxCell id="8NbpXaSffSvyTPDVv6Rb-17" value="" style="line;html=1;strokeWidth=1;align=left;verticalAlign=middle;spacingTop=-1;spacingLeft=3;spacingRight=3;rotatable=0;labelPosition=right;points=[];portConstraint=eastwest;fillColor=#dae8fc;strokeColor=#6c8ebf;" vertex="1" parent="8NbpXaSffSvyTPDVv6Rb-14">
          <mxGeometry y="130" width="200" height="8" as="geometry" />
        </mxCell>
        <mxCell id="8NbpXaSffSvyTPDVv6Rb-95" value="Larva()" style="text;align=left;verticalAlign=top;spacingLeft=4;spacingRight=4;overflow=hidden;rotatable=0;points=[[0,0.5],[1,0.5]];portConstraint=eastwest;" vertex="1" parent="8NbpXaSffSvyTPDVv6Rb-14">
          <mxGeometry y="138" width="200" height="26" as="geometry" />
        </mxCell>
        <mxCell id="8NbpXaSffSvyTPDVv6Rb-96" value="~Larva()" style="text;align=left;verticalAlign=top;spacingLeft=4;spacingRight=4;overflow=hidden;rotatable=0;points=[[0,0.5],[1,0.5]];portConstraint=eastwest;" vertex="1" parent="8NbpXaSffSvyTPDVv6Rb-14">
          <mxGeometry y="164" width="200" height="26" as="geometry" />
        </mxCell>
        <mxCell id="8NbpXaSffSvyTPDVv6Rb-73" value="virtual int :Â  increase_food_need();" style="text;align=left;verticalAlign=top;spacingLeft=4;spacingRight=4;overflow=hidden;rotatable=0;points=[[0,0.5],[1,0.5]];portConstraint=eastwest;" vertex="1" parent="8NbpXaSffSvyTPDVv6Rb-14">
          <mxGeometry y="190" width="200" height="26" as="geometry" />
        </mxCell>
        <mxCell id="8NbpXaSffSvyTPDVv6Rb-26" value="Queen" style="swimlane;fontStyle=2;align=center;verticalAlign=top;childLayout=stackLayout;horizontal=1;startSize=26;horizontalStack=0;resizeParent=1;resizeLast=0;collapsible=1;marginBottom=0;rounded=0;shadow=0;strokeWidth=1;fillColor=#dae8fc;strokeColor=#6c8ebf;" vertex="1" parent="1">
          <mxGeometry x="1750" y="470" width="190" height="216" as="geometry">
            <mxRectangle x="480" y="125" width="160" height="26" as="alternateBounds" />
          </mxGeometry>
        </mxCell>
        <mxCell id="8NbpXaSffSvyTPDVv6Rb-49" value="virtual int :Â  max_food_need;" style="text;align=left;verticalAlign=top;spacingLeft=4;spacingRight=4;overflow=hidden;rotatable=0;points=[[0,0.5],[1,0.5]];portConstraint=eastwest;" vertex="1" parent="8NbpXaSffSvyTPDVv6Rb-26">
          <mxGeometry y="26" width="190" height="26" as="geometry" />
        </mxCell>
        <mxCell id="8NbpXaSffSvyTPDVv6Rb-50" value="virtual int :Â  food_need;" style="text;align=left;verticalAlign=top;spacingLeft=4;spacingRight=4;overflow=hidden;rotatable=0;points=[[0,0.5],[1,0.5]];portConstraint=eastwest;" vertex="1" parent="8NbpXaSffSvyTPDVv6Rb-26">
          <mxGeometry y="52" width="190" height="26" as="geometry" />
        </mxCell>
        <mxCell id="8NbpXaSffSvyTPDVv6Rb-69" value="virtual int :Â  time_to_transition;" style="text;align=left;verticalAlign=top;spacingLeft=4;spacingRight=4;overflow=hidden;rotatable=0;points=[[0,0.5],[1,0.5]];portConstraint=eastwest;" vertex="1" parent="8NbpXaSffSvyTPDVv6Rb-26">
          <mxGeometry y="78" width="190" height="26" as="geometry" />
        </mxCell>
        <mxCell id="8NbpXaSffSvyTPDVv6Rb-82" value="virtual bool :Â  is_queen;" style="text;align=left;verticalAlign=top;spacingLeft=4;spacingRight=4;overflow=hidden;rotatable=0;points=[[0,0.5],[1,0.5]];portConstraint=eastwest;" vertex="1" parent="8NbpXaSffSvyTPDVv6Rb-26">
          <mxGeometry y="104" width="190" height="26" as="geometry" />
        </mxCell>
        <mxCell id="8NbpXaSffSvyTPDVv6Rb-29" value="" style="line;html=1;strokeWidth=1;align=left;verticalAlign=middle;spacingTop=-1;spacingLeft=3;spacingRight=3;rotatable=0;labelPosition=right;points=[];portConstraint=eastwest;fillColor=#dae8fc;strokeColor=#6c8ebf;" vertex="1" parent="8NbpXaSffSvyTPDVv6Rb-26">
          <mxGeometry y="130" width="190" height="8" as="geometry" />
        </mxCell>
        <mxCell id="8NbpXaSffSvyTPDVv6Rb-103" value="Queen()" style="text;align=left;verticalAlign=top;spacingLeft=4;spacingRight=4;overflow=hidden;rotatable=0;points=[[0,0.5],[1,0.5]];portConstraint=eastwest;" vertex="1" parent="8NbpXaSffSvyTPDVv6Rb-26">
          <mxGeometry y="138" width="190" height="26" as="geometry" />
        </mxCell>
        <mxCell id="8NbpXaSffSvyTPDVv6Rb-104" value="~Queen()" style="text;align=left;verticalAlign=top;spacingLeft=4;spacingRight=4;overflow=hidden;rotatable=0;points=[[0,0.5],[1,0.5]];portConstraint=eastwest;" vertex="1" parent="8NbpXaSffSvyTPDVv6Rb-26">
          <mxGeometry y="164" width="190" height="26" as="geometry" />
        </mxCell>
        <mxCell id="8NbpXaSffSvyTPDVv6Rb-75" value="virtual int :Â  increase_food_need();" style="text;align=left;verticalAlign=top;spacingLeft=4;spacingRight=4;overflow=hidden;rotatable=0;points=[[0,0.5],[1,0.5]];portConstraint=eastwest;" vertex="1" parent="8NbpXaSffSvyTPDVv6Rb-26">
          <mxGeometry y="190" width="190" height="26" as="geometry" />
        </mxCell>
        <mxCell id="8NbpXaSffSvyTPDVv6Rb-18" value="Worker" style="swimlane;fontStyle=2;align=center;verticalAlign=top;childLayout=stackLayout;horizontal=1;startSize=26;horizontalStack=0;resizeParent=1;resizeLast=0;collapsible=1;marginBottom=0;rounded=0;shadow=0;strokeWidth=1;fillColor=#dae8fc;strokeColor=#6c8ebf;" vertex="1" parent="1">
          <mxGeometry x="1321" y="790" width="190" height="268" as="geometry">
            <mxRectangle x="480" y="125" width="160" height="26" as="alternateBounds" />
          </mxGeometry>
        </mxCell>
        <mxCell id="8NbpXaSffSvyTPDVv6Rb-46" value="virtual int :Â  max_food_need;" style="text;align=left;verticalAlign=top;spacingLeft=4;spacingRight=4;overflow=hidden;rotatable=0;points=[[0,0.5],[1,0.5]];portConstraint=eastwest;" vertex="1" parent="8NbpXaSffSvyTPDVv6Rb-18">
          <mxGeometry y="26" width="190" height="26" as="geometry" />
        </mxCell>
        <mxCell id="8NbpXaSffSvyTPDVv6Rb-45" value="virtual int :Â  food_need;" style="text;align=left;verticalAlign=top;spacingLeft=4;spacingRight=4;overflow=hidden;rotatable=0;points=[[0,0.5],[1,0.5]];portConstraint=eastwest;" vertex="1" parent="8NbpXaSffSvyTPDVv6Rb-18">
          <mxGeometry y="52" width="190" height="26" as="geometry" />
        </mxCell>
        <mxCell id="8NbpXaSffSvyTPDVv6Rb-65" value="virtual int :Â  carrying_capacity;" style="text;align=left;verticalAlign=top;spacingLeft=4;spacingRight=4;overflow=hidden;rotatable=0;points=[[0,0.5],[1,0.5]];portConstraint=eastwest;" vertex="1" parent="8NbpXaSffSvyTPDVv6Rb-18">
          <mxGeometry y="78" width="190" height="26" as="geometry" />
        </mxCell>
        <mxCell id="8NbpXaSffSvyTPDVv6Rb-70" value="virtual int :Â  time_to_transition;" style="text;align=left;verticalAlign=top;spacingLeft=4;spacingRight=4;overflow=hidden;rotatable=0;points=[[0,0.5],[1,0.5]];portConstraint=eastwest;" vertex="1" parent="8NbpXaSffSvyTPDVv6Rb-18">
          <mxGeometry y="104" width="190" height="26" as="geometry" />
        </mxCell>
        <mxCell id="8NbpXaSffSvyTPDVv6Rb-84" value="virtual bool :Â  is_queen;" style="text;align=left;verticalAlign=top;spacingLeft=4;spacingRight=4;overflow=hidden;rotatable=0;points=[[0,0.5],[1,0.5]];portConstraint=eastwest;" vertex="1" parent="8NbpXaSffSvyTPDVv6Rb-18">
          <mxGeometry y="130" width="190" height="26" as="geometry" />
        </mxCell>
        <mxCell id="8NbpXaSffSvyTPDVv6Rb-21" value="" style="line;html=1;strokeWidth=1;align=left;verticalAlign=middle;spacingTop=-1;spacingLeft=3;spacingRight=3;rotatable=0;labelPosition=right;points=[];portConstraint=eastwest;fillColor=#dae8fc;strokeColor=#6c8ebf;" vertex="1" parent="8NbpXaSffSvyTPDVv6Rb-18">
          <mxGeometry y="156" width="190" height="8" as="geometry" />
        </mxCell>
        <mxCell id="8NbpXaSffSvyTPDVv6Rb-99" value="Worker()" style="text;align=left;verticalAlign=top;spacingLeft=4;spacingRight=4;overflow=hidden;rotatable=0;points=[[0,0.5],[1,0.5]];portConstraint=eastwest;" vertex="1" parent="8NbpXaSffSvyTPDVv6Rb-18">
          <mxGeometry y="164" width="190" height="26" as="geometry" />
        </mxCell>
        <mxCell id="8NbpXaSffSvyTPDVv6Rb-100" value="~Worker()" style="text;align=left;verticalAlign=top;spacingLeft=4;spacingRight=4;overflow=hidden;rotatable=0;points=[[0,0.5],[1,0.5]];portConstraint=eastwest;" vertex="1" parent="8NbpXaSffSvyTPDVv6Rb-18">
          <mxGeometry y="190" width="190" height="26" as="geometry" />
        </mxCell>
        <mxCell id="8NbpXaSffSvyTPDVv6Rb-40" value="virtual void :Â  movement();" style="text;align=left;verticalAlign=top;spacingLeft=4;spacingRight=4;overflow=hidden;rotatable=0;points=[[0,0.5],[1,0.5]];portConstraint=eastwest;" vertex="1" parent="8NbpXaSffSvyTPDVv6Rb-18">
          <mxGeometry y="216" width="190" height="26" as="geometry" />
        </mxCell>
        <mxCell id="8NbpXaSffSvyTPDVv6Rb-78" value="virtual int :Â  increase_food_need() = 0;" style="text;align=left;verticalAlign=top;spacingLeft=4;spacingRight=4;overflow=hidden;rotatable=0;points=[[0,0.5],[1,0.5]];portConstraint=eastwest;" vertex="1" parent="8NbpXaSffSvyTPDVv6Rb-18">
          <mxGeometry y="242" width="190" height="26" as="geometry" />
        </mxCell>
        <mxCell id="8NbpXaSffSvyTPDVv6Rb-22" value="Warrior" style="swimlane;fontStyle=2;align=center;verticalAlign=top;childLayout=stackLayout;horizontal=1;startSize=26;horizontalStack=0;resizeParent=1;resizeLast=0;collapsible=1;marginBottom=0;rounded=0;shadow=0;strokeWidth=1;fillColor=#dae8fc;strokeColor=#6c8ebf;" vertex="1" parent="1">
          <mxGeometry x="1540" y="790" width="190" height="268" as="geometry">
            <mxRectangle x="480" y="125" width="160" height="26" as="alternateBounds" />
          </mxGeometry>
        </mxCell>
        <mxCell id="8NbpXaSffSvyTPDVv6Rb-47" value="virtual int :Â  max_food_need;" style="text;align=left;verticalAlign=top;spacingLeft=4;spacingRight=4;overflow=hidden;rotatable=0;points=[[0,0.5],[1,0.5]];portConstraint=eastwest;" vertex="1" parent="8NbpXaSffSvyTPDVv6Rb-22">
          <mxGeometry y="26" width="190" height="26" as="geometry" />
        </mxCell>
        <mxCell id="8NbpXaSffSvyTPDVv6Rb-48" value="virtual int :Â  food_need;" style="text;align=left;verticalAlign=top;spacingLeft=4;spacingRight=4;overflow=hidden;rotatable=0;points=[[0,0.5],[1,0.5]];portConstraint=eastwest;" vertex="1" parent="8NbpXaSffSvyTPDVv6Rb-22">
          <mxGeometry y="52" width="190" height="26" as="geometry" />
        </mxCell>
        <mxCell id="8NbpXaSffSvyTPDVv6Rb-64" value="virtual int :Â  carrying_capacity;" style="text;align=left;verticalAlign=top;spacingLeft=4;spacingRight=4;overflow=hidden;rotatable=0;points=[[0,0.5],[1,0.5]];portConstraint=eastwest;" vertex="1" parent="8NbpXaSffSvyTPDVv6Rb-22">
          <mxGeometry y="78" width="190" height="26" as="geometry" />
        </mxCell>
        <mxCell id="8NbpXaSffSvyTPDVv6Rb-71" value="virtual int :Â  time_to_transition;" style="text;align=left;verticalAlign=top;spacingLeft=4;spacingRight=4;overflow=hidden;rotatable=0;points=[[0,0.5],[1,0.5]];portConstraint=eastwest;" vertex="1" parent="8NbpXaSffSvyTPDVv6Rb-22">
          <mxGeometry y="104" width="190" height="26" as="geometry" />
        </mxCell>
        <mxCell id="8NbpXaSffSvyTPDVv6Rb-85" value="virtual bool :Â  is_queen;" style="text;align=left;verticalAlign=top;spacingLeft=4;spacingRight=4;overflow=hidden;rotatable=0;points=[[0,0.5],[1,0.5]];portConstraint=eastwest;" vertex="1" parent="8NbpXaSffSvyTPDVv6Rb-22">
          <mxGeometry y="130" width="190" height="26" as="geometry" />
        </mxCell>
        <mxCell id="8NbpXaSffSvyTPDVv6Rb-25" value="" style="line;html=1;strokeWidth=1;align=left;verticalAlign=middle;spacingTop=-1;spacingLeft=3;spacingRight=3;rotatable=0;labelPosition=right;points=[];portConstraint=eastwest;fillColor=#dae8fc;strokeColor=#6c8ebf;" vertex="1" parent="8NbpXaSffSvyTPDVv6Rb-22">
          <mxGeometry y="156" width="190" height="8" as="geometry" />
        </mxCell>
        <mxCell id="8NbpXaSffSvyTPDVv6Rb-101" value="Warrior()" style="text;align=left;verticalAlign=top;spacingLeft=4;spacingRight=4;overflow=hidden;rotatable=0;points=[[0,0.5],[1,0.5]];portConstraint=eastwest;" vertex="1" parent="8NbpXaSffSvyTPDVv6Rb-22">
          <mxGeometry y="164" width="190" height="26" as="geometry" />
        </mxCell>
        <mxCell id="8NbpXaSffSvyTPDVv6Rb-102" value="~Warrior()" style="text;align=left;verticalAlign=top;spacingLeft=4;spacingRight=4;overflow=hidden;rotatable=0;points=[[0,0.5],[1,0.5]];portConstraint=eastwest;" vertex="1" parent="8NbpXaSffSvyTPDVv6Rb-22">
          <mxGeometry y="190" width="190" height="26" as="geometry" />
        </mxCell>
        <mxCell id="8NbpXaSffSvyTPDVv6Rb-54" value="virtual void :Â  movement();" style="text;align=left;verticalAlign=top;spacingLeft=4;spacingRight=4;overflow=hidden;rotatable=0;points=[[0,0.5],[1,0.5]];portConstraint=eastwest;" vertex="1" parent="8NbpXaSffSvyTPDVv6Rb-22">
          <mxGeometry y="216" width="190" height="26" as="geometry" />
        </mxCell>
        <mxCell id="8NbpXaSffSvyTPDVv6Rb-77" value="virtual int :Â  increase_food_need() = 0;" style="text;align=left;verticalAlign=top;spacingLeft=4;spacingRight=4;overflow=hidden;rotatable=0;points=[[0,0.5],[1,0.5]];portConstraint=eastwest;" vertex="1" parent="8NbpXaSffSvyTPDVv6Rb-22">
          <mxGeometry y="242" width="190" height="26" as="geometry" />
        </mxCell>
      </root>
    </mxGraphModel>
  </diagram>
</mxfile>
